<?xml version="1.0" encoding="utf-8"?>
<!-- Generator: Adobe Illustrator 16.0.3, SVG Export Plug-In . SVG Version: 6.00 Build 0)  -->
<!DOCTYPE svg PUBLIC "-//W3C//DTD SVG 1.1//EN" "http://www.w3.org/Graphics/SVG/1.1/DTD/svg11.dtd">
<svg version="1.1" id="Layer_1" xmlns:xl="http://www.w3.org/1999/xlink" xmlns:dc="http://purl.org/dc/elements/1.1/"
	 xmlns="http://www.w3.org/2000/svg" xmlns:xlink="http://www.w3.org/1999/xlink" x="0px" y="0px" width="360px" height="304.453px"
	 viewBox="92.25 74.25 360 304.453" enable-background="new 92.25 74.25 360 304.453" xml:space="preserve">
<title>steel-teal</title>
<title>CASICS</title>
<g>
	<path fill="#97B2D9" d="M441.25,74.25h-338c-6.075,0-11,4.925-11,11v266c0,6.075,4.925,11,11,11h78.438v-20.812h-67.5V117.562
		H436.5v45.562h15.75V85.25C452.25,79.175,447.325,74.25,441.25,74.25z"/>
	<rect x="415.375" y="90.438" fill="#FFFFFF" width="11.25" height="11.812"/>
	<rect x="399.5" y="90.438" fill="#FFFFFF" width="11.25" height="11.812"/>
	<rect x="383.625" y="90.438" fill="#FFFFFF" width="11.25" height="11.812"/>
	<g>
		<rect x="256.161" y="172.688" fill="#16577A" width="49.613" height="62.093"/>
		<rect x="316.774" y="172.688" fill="#16577A" width="48.23" height="62.093"/>
		<rect x="193.275" y="245.78" fill="#16577A" width="51.886" height="59.608"/>
		<rect x="256.161" y="245.78" fill="#16577A" width="108.844" height="59.608"/>
		<rect x="193.275" y="316.389" fill="#16577A" width="258.412" height="62.314"/>
		<rect x="193.275" y="172.688" fill="#16577A" width="51.886" height="62.093"/>
		<rect x="376.005" y="245.78" fill="#16577A" width="75.683" height="59.608"/>
		<rect x="376.005" y="172.688" fill="#16577A" width="23.028" height="62.093"/>
	</g>
</g>
</svg>
